<svg width="153" height="153" viewBox="0 0 153 153" fill="none" xmlns="http://www.w3.org/2000/svg">
<rect x="2.5" y="2.5" width="148" height="148" rx="27.5" fill="#0B0B0B" stroke="url(#paint0_linear_0_1)" stroke-width="5"/>
<path d="M35.3681 85V83.032H40.0481V73.768H35.8481V71.8H42.2081V83.032H46.6481V85H35.3681ZM40.8881 69.424C40.3601 69.424 39.9441 69.288 39.6401 69.016C39.3361 68.744 39.1841 68.376 39.1841 67.912C39.1841 67.432 39.3361 67.056 39.6401 66.784C39.9441 66.496 40.3601 66.352 40.8881 66.352C41.4161 66.352 41.8321 66.496 42.1361 66.784C42.4401 67.056 42.5921 67.432 42.5921 67.912C42.5921 68.376 42.4401 68.744 42.1361 69.016C41.8321 69.288 41.4161 69.424 40.8881 69.424ZM54.1508 85.24C52.8388 85.24 51.7748 84.8 50.9588 83.92C50.1588 83.04 49.7588 81.848 49.7588 80.344V76.48C49.7588 74.96 50.1588 73.76 50.9588 72.88C51.7588 72 52.8228 71.56 54.1508 71.56C55.1428 71.56 55.9588 71.808 56.5988 72.304C57.2388 72.8 57.6148 73.472 57.7268 74.32H57.7988L57.7508 71.32V67.48H59.9108V85H57.7508V82.48H57.7268C57.6148 83.344 57.2388 84.024 56.5988 84.52C55.9588 85 55.1428 85.24 54.1508 85.24ZM54.8708 83.368C55.7668 83.368 56.4708 83.088 56.9828 82.528C57.4948 81.968 57.7508 81.192 57.7508 80.2V76.6C57.7508 75.608 57.4948 74.832 56.9828 74.272C56.4708 73.712 55.7668 73.432 54.8708 73.432C53.9588 73.432 53.2388 73.704 52.7108 74.248C52.1828 74.792 51.9188 75.576 51.9188 76.6V80.2C51.9188 81.224 52.1828 82.008 52.7108 82.552C53.2388 83.096 53.9588 83.368 54.8708 83.368ZM69.3094 85.24C68.2694 85.24 67.3574 85.032 66.5734 84.616C65.8054 84.2 65.2054 83.616 64.7734 82.864C64.3574 82.096 64.1494 81.208 64.1494 80.2V76.6C64.1494 75.576 64.3574 74.688 64.7734 73.936C65.2054 73.184 65.8054 72.6 66.5734 72.184C67.3574 71.768 68.2694 71.56 69.3094 71.56C70.3494 71.56 71.2534 71.768 72.0214 72.184C72.8054 72.6 73.4054 73.184 73.8214 73.936C74.2534 74.688 74.4694 75.576 74.4694 76.6V78.928H66.2614V80.2C66.2614 81.24 66.5254 82.04 67.0534 82.6C67.5814 83.144 68.3334 83.416 69.3094 83.416C70.1414 83.416 70.8134 83.272 71.3254 82.984C71.8374 82.68 72.1494 82.232 72.2614 81.64H74.4214C74.2774 82.744 73.7334 83.624 72.7894 84.28C71.8614 84.92 70.7014 85.24 69.3094 85.24ZM66.2614 77.296H72.3574V76.6C72.3574 75.56 72.0934 74.76 71.5654 74.2C71.0534 73.64 70.3014 73.36 69.3094 73.36C68.3334 73.36 67.5814 73.64 67.0534 74.2C66.5254 74.76 66.2614 75.56 66.2614 76.6V77.296ZM98.0906 75.16C97.4986 75.16 97.0186 75 96.6506 74.68C96.2826 74.344 96.0986 73.904 96.0986 73.36C96.0986 72.816 96.2826 72.384 96.6506 72.064C97.0186 71.728 97.4986 71.56 98.0906 71.56C98.6986 71.56 99.1786 71.728 99.5306 72.064C99.8986 72.384 100.083 72.816 100.083 73.36C100.083 73.904 99.8986 74.344 99.5306 74.68C99.1786 75 98.6986 75.16 98.0906 75.16ZM98.0906 85.24C97.4986 85.24 97.0186 85.08 96.6506 84.76C96.2826 84.424 96.0986 83.984 96.0986 83.44C96.0986 82.896 96.2826 82.464 96.6506 82.144C97.0186 81.808 97.4986 81.64 98.0906 81.64C98.6986 81.64 99.1786 81.808 99.5306 82.144C99.8986 82.464 100.083 82.896 100.083 83.44C100.083 83.984 99.8986 84.424 99.5306 84.76C99.1786 85.08 98.6986 85.24 98.0906 85.24ZM108.041 87.88V85.744C109.081 85.504 109.977 85.056 110.729 84.4C111.481 83.728 112.057 82.888 112.457 81.88C112.873 80.872 113.081 79.752 113.081 78.52V74.2C113.081 72.936 112.873 71.8 112.457 70.792C112.041 69.784 111.457 68.944 110.705 68.272C109.953 67.584 109.065 67.12 108.041 66.88V64.84C109.529 65.208 110.809 65.832 111.881 66.712C112.953 67.592 113.777 68.672 114.353 69.952C114.945 71.216 115.241 72.632 115.241 74.2V78.52C115.241 80.904 114.609 82.92 113.345 84.568C112.081 86.216 110.313 87.32 108.041 87.88Z" fill="white"/>
<defs>
<linearGradient id="paint0_linear_0_1" x1="76.5" y1="0" x2="76.5" y2="153" gradientUnits="userSpaceOnUse">
<stop stop-color="#FF00FF"/>
<stop offset="0.495034" stop-color="#FF0000"/>
<stop offset="1" stop-color="#FFAA00"/>
</linearGradient>
</defs>
</svg>
